<svg id="visual" viewBox="0 0 900 900" width="900" height="900" xmlns="http://www.w3.org/2000/svg" xmlns:xlink="http://www.w3.org/1999/xlink" version="1.1"><path d="M0 163L13.7 163C27.3 163 54.7 163 82 152.5C109.3 142 136.7 121 163.8 110.5C191 100 218 100 245.2 110.5C272.3 121 299.7 142 327 149.5C354.3 157 381.7 151 409 152.5C436.3 154 463.7 163 491 149.5C518.3 136 545.7 100 573 85C600.3 70 627.7 76 654.8 76C682 76 709 70 736.2 70C763.3 70 790.7 76 818 79C845.3 82 872.7 82 886.3 82L900 82L900 0L886.3 0C872.7 0 845.3 0 818 0C790.7 0 763.3 0 736.2 0C709 0 682 0 654.8 0C627.7 0 600.3 0 573 0C545.7 0 518.3 0 491 0C463.7 0 436.3 0 409 0C381.7 0 354.3 0 327 0C299.7 0 272.3 0 245.2 0C218 0 191 0 163.8 0C136.7 0 109.3 0 82 0C54.7 0 27.3 0 13.7 0L0 0Z" fill="#d0d0cf"></path><path d="M0 298L13.7 296.5C27.3 295 54.7 292 82 275.5C109.3 259 136.7 229 163.8 217C191 205 218 211 245.2 221.5C272.3 232 299.7 247 327 248.5C354.3 250 381.7 238 409 248.5C436.3 259 463.7 292 491 286C518.3 280 545.7 235 573 221.5C600.3 208 627.7 226 654.8 226C682 226 709 208 736.2 214C763.3 220 790.7 250 818 271C845.3 292 872.7 304 886.3 310L900 316L900 80L886.3 80C872.7 80 845.3 80 818 77C790.7 74 763.3 68 736.2 68C709 68 682 74 654.8 74C627.7 74 600.3 68 573 83C545.7 98 518.3 134 491 147.5C463.7 161 436.3 152 409 150.5C381.7 149 354.3 155 327 147.5C299.7 140 272.3 119 245.2 108.5C218 98 191 98 163.8 108.5C136.7 119 109.3 140 82 150.5C54.7 161 27.3 161 13.7 161L0 161Z" fill="#c5c5c4"></path><path d="M0 487L13.7 491.5C27.3 496 54.7 505 82 484C109.3 463 136.7 412 163.8 404.5C191 397 218 433 245.2 448C272.3 463 299.7 457 327 460C354.3 463 381.7 475 409 496C436.3 517 463.7 547 491 568C518.3 589 545.7 601 573 580C600.3 559 627.7 505 654.8 484C682 463 709 475 736.2 496C763.3 517 790.7 547 818 547C845.3 547 872.7 517 886.3 502L900 487L900 314L886.3 308C872.7 302 845.3 290 818 269C790.7 248 763.3 218 736.2 212C709 206 682 224 654.8 224C627.7 224 600.3 206 573 219.5C545.7 233 518.3 278 491 284C463.7 290 436.3 257 409 246.5C381.7 236 354.3 248 327 246.5C299.7 245 272.3 230 245.2 219.5C218 209 191 203 163.8 215C136.7 227 109.3 257 82 273.5C54.7 290 27.3 293 13.7 294.5L0 296Z" fill="#bbbbba"></path><path d="M0 820L13.7 821.5C27.3 823 54.7 826 82 814C109.3 802 136.7 775 163.8 772C191 769 218 790 245.2 794.5C272.3 799 299.7 787 327 787C354.3 787 381.7 799 409 797.5C436.3 796 463.7 781 491 782.5C518.3 784 545.7 802 573 812.5C600.3 823 627.7 826 654.8 826C682 826 709 823 736.2 820C763.3 817 790.7 814 818 815.5C845.3 817 872.7 823 886.3 826L900 829L900 485L886.3 500C872.7 515 845.3 545 818 545C790.7 545 763.3 515 736.2 494C709 473 682 461 654.8 482C627.7 503 600.3 557 573 578C545.7 599 518.3 587 491 566C463.7 545 436.3 515 409 494C381.7 473 354.3 461 327 458C299.7 455 272.3 461 245.2 446C218 431 191 395 163.8 402.5C136.7 410 109.3 461 82 482C54.7 503 27.3 494 13.7 489.5L0 485Z" fill="#ababaa"></path><path d="M0 901L13.7 901C27.3 901 54.7 901 82 901C109.3 901 136.7 901 163.8 901C191 901 218 901 245.2 901C272.3 901 299.7 901 327 901C354.3 901 381.7 901 409 901C436.3 901 463.7 901 491 901C518.3 901 545.7 901 573 901C600.3 901 627.7 901 654.8 901C682 901 709 901 736.2 901C763.3 901 790.7 901 818 901C845.3 901 872.7 901 886.3 901L900 901L900 827L886.3 824C872.7 821 845.3 815 818 813.5C790.7 812 763.3 815 736.2 818C709 821 682 824 654.8 824C627.7 824 600.3 821 573 810.5C545.7 800 518.3 782 491 780.5C463.7 779 436.3 794 409 795.5C381.7 797 354.3 785 327 785C299.7 785 272.3 797 245.2 792.5C218 788 191 767 163.8 770C136.7 773 109.3 800 82 812C54.7 824 27.3 821 13.7 819.5L0 818Z" fill="#9b9b9a"></path></svg>