<svg id="visual" viewBox="0 0 900 900" width="900" height="900" xmlns="http://www.w3.org/2000/svg" xmlns:xlink="http://www.w3.org/1999/xlink" version="1.1"><path d="M0 136L15 130C30 124 60 112 90 112C120 112 150 124 180 128.5C210 133 240 130 270 127C300 124 330 121 360 124C390 127 420 136 450 142C480 148 510 151 540 148C570 145 600 136 630 136C660 136 690 145 720 154C750 163 780 172 810 173.5C840 175 870 169 885 166L900 163L900 0L885 0C870 0 840 0 810 0C780 0 750 0 720 0C690 0 660 0 630 0C600 0 570 0 540 0C510 0 480 0 450 0C420 0 390 0 360 0C330 0 300 0 270 0C240 0 210 0 180 0C150 0 120 0 90 0C60 0 30 0 15 0L0 0Z" fill="#d0d0cf"></path><path d="M0 487L15 491.5C30 496 60 505 90 491.5C120 478 150 442 180 434.5C210 427 240 448 270 434.5C300 421 330 373 360 386.5C390 400 420 475 450 497.5C480 520 510 490 540 475C570 460 600 460 630 452.5C660 445 690 430 720 421C750 412 780 409 810 409C840 409 870 412 885 413.5L900 415L900 161L885 164C870 167 840 173 810 171.5C780 170 750 161 720 152C690 143 660 134 630 134C600 134 570 143 540 146C510 149 480 146 450 140C420 134 390 125 360 122C330 119 300 122 270 125C240 128 210 131 180 126.5C150 122 120 110 90 110C60 110 30 122 15 128L0 134Z" fill="#c2c2c1"></path><path d="M0 676L15 674.5C30 673 60 670 90 664C120 658 150 649 180 655C210 661 240 682 270 668.5C300 655 330 607 360 602.5C390 598 420 637 450 647.5C480 658 510 640 540 632.5C570 625 600 628 630 626.5C660 625 690 619 720 604C750 589 780 565 810 569.5C840 574 870 607 885 623.5L900 640L900 413L885 411.5C870 410 840 407 810 407C780 407 750 410 720 419C690 428 660 443 630 450.5C600 458 570 458 540 473C510 488 480 518 450 495.5C420 473 390 398 360 384.5C330 371 300 419 270 432.5C240 446 210 425 180 432.5C150 440 120 476 90 489.5C60 503 30 494 15 489.5L0 485Z" fill="#b0b0af"></path><path d="M0 901L15 901C30 901 60 901 90 901C120 901 150 901 180 901C210 901 240 901 270 901C300 901 330 901 360 901C390 901 420 901 450 901C480 901 510 901 540 901C570 901 600 901 630 901C660 901 690 901 720 901C750 901 780 901 810 901C840 901 870 901 885 901L900 901L900 638L885 621.5C870 605 840 572 810 567.5C780 563 750 587 720 602C690 617 660 623 630 624.5C600 626 570 623 540 630.5C510 638 480 656 450 645.5C420 635 390 596 360 600.5C330 605 300 653 270 666.5C240 680 210 659 180 653C150 647 120 656 90 662C60 668 30 671 15 672.5L0 674Z" fill="#9b9b9a"></path></svg>